<svg width="24" height="24" viewBox="0 0 24 24" fill="none" xmlns="http://www.w3.org/2000/svg">
<path d="M20.89 13V14H20.02C19.28 14 18.68 14.6 18.68 15.35V15.65C18.68 16.0067 18.5383 16.3488 18.286 16.6011C18.0338 16.8533 17.6917 16.995 17.335 16.995C16.9783 16.995 16.6362 16.8533 16.3839 16.6011C16.1317 16.3488 15.99 16.0067 15.99 15.65V15.35C15.99 14.6 15.38 14 14.64 14C13.9 14 13.3 14.6 13.3 15.35V15.65C13.3 16.008 13.1578 16.3514 12.9046 16.6046C12.6514 16.8578 12.308 17 11.95 17C11.5919 17 11.2486 16.8578 10.9954 16.6046C10.7422 16.3514 10.6 16.008 10.6 15.65V15.35C10.6 14.6 9.99999 14 9.25999 14C8.51999 14 7.90999 14.6 7.90999 15.35V15.65C7.90999 16.0067 7.76828 16.3488 7.51604 16.6011C7.26381 16.8533 6.9217 16.995 6.56499 16.995C6.20827 16.995 5.86616 16.8533 5.61393 16.6011C5.36169 16.3488 5.21999 16.0067 5.21999 15.65V15.33C5.21999 14.59 4.62999 13.99 3.89999 13.98H3.10999V13C3.10999 11.62 4.14999 10.45 5.55999 10.11C5.83999 10.04 6.12999 10 6.43999 10H17.56C17.87 10 18.16 10.04 18.44 10.11C19.85 10.45 20.89 11.62 20.89 13ZM18.44 7.17V8.58C18.15 8.52 17.86 8.5 17.56 8.5H6.43999C6.13999 8.5 5.84999 8.53 5.55999 8.59V7.17C5.55999 5.97 6.63999 5 7.97999 5H16.02C17.36 5 18.44 5.97 18.44 7.17V7.17Z" fill="black"/>
<path d="M8.75 3.548V5.008H7.98C7.72 5.008 7.48 5.038 7.25 5.098V3.548C7.25 3.198 7.59 2.898 8 2.898C8.41 2.898 8.75 3.198 8.75 3.548ZM16.75 3.328V5.098C16.52 5.028 16.28 4.998 16.02 4.998H15.25V3.328C15.25 2.918 15.59 2.578 16 2.578C16.41 2.578 16.75 2.918 16.75 3.328V3.328ZM12.75 2.82V5H11.25V2.82C11.25 2.37 11.59 2 12 2C12.41 2 12.75 2.37 12.75 2.82ZM22 21.25C22 21.66 21.66 22 21.25 22H2.75C2.34 22 2 21.66 2 21.25C2 20.84 2.34 20.5 2.75 20.5H3.11V15.48H3.72V15.55C3.72 16.89 4.6 18.13 5.91 18.42C6.93 18.66 7.9 18.33 8.56 17.68C8.94 17.3 9.56 17.29 9.94 17.67C10.46 18.18 11.17 18.5 11.95 18.5C12.73 18.5 13.44 18.19 13.96 17.67C14.34 17.3 14.95 17.3 15.34 17.68C15.99 18.33 16.96 18.66 17.99 18.42C19.3 18.13 20.18 16.89 20.18 15.55V15.5H20.89V20.5H21.25C21.66 20.5 22 20.84 22 21.25Z" fill="black"/>
</svg>
