<svg width="24" height="24" viewBox="0 0 24 24" fill="none" xmlns="http://www.w3.org/2000/svg">
<path d="M12 22C17.52 22 22 17.52 22 12C22 6.48 17.52 2 12 2C6.48 2 2 6.48 2 12C2 17.52 6.48 22 12 22Z" stroke="black" stroke-width="1.5" stroke-linecap="round" stroke-linejoin="round"/>
<path d="M21.17 7.99988C18.15 7.33988 15.02 7.33988 12 7.99988M12 15.9999C14.21 15.9999 16 14.2099 16 11.9999C16 9.78988 14.21 7.99988 12 7.99988C9.79 7.99988 8 9.78988 8 11.9999C8 14.2099 9.79 15.9999 12 15.9999Z" stroke="black" stroke-width="1.5" stroke-linecap="round" stroke-linejoin="round"/>
<path d="M3.9502 6.06006L3.9702 6.12006C4.9802 9.01006 6.5302 11.6901 8.5402 14.0001M10.8802 21.9401C12.9402 19.6701 14.4902 16.9901 15.4302 14.0801L15.4602 14.0001" stroke="black" stroke-width="1.5" stroke-linecap="round" stroke-linejoin="round"/>
</svg>
