<svg width="39" height="39" viewBox="0 0 39 39" fill="none" xmlns="http://www.w3.org/2000/svg">
<path d="M19.695 20.7675C19.5655 20.7512 19.4345 20.7512 19.305 20.7675C17.9269 20.7211 16.6208 20.1409 15.6626 19.1493C14.7044 18.1578 14.1692 16.8326 14.17 15.4538C14.17 12.5125 16.5425 10.1238 19.5 10.1238C20.8966 10.1213 22.2382 10.6678 23.2356 11.6454C24.233 12.623 24.8062 13.9534 24.8318 15.3497C24.8574 16.7461 24.3332 18.0966 23.3723 19.11C22.4114 20.1235 21.0907 20.7188 19.695 20.7675V20.7675ZM30.4525 31.4925C27.4662 34.2372 23.556 35.7572 19.5 35.75C15.275 35.75 11.44 34.1413 8.54749 31.4925C8.70999 29.965 9.68499 28.47 11.4237 27.3C15.8762 24.3425 23.1562 24.3425 27.5762 27.3C29.315 28.47 30.29 29.965 30.4525 31.4925V31.4925Z" stroke="#434343" stroke-width="1.5" stroke-linecap="round" stroke-linejoin="round"/>
<path d="M19.5 35.75C28.4749 35.75 35.75 28.4749 35.75 19.5C35.75 10.5251 28.4749 3.25 19.5 3.25C10.5251 3.25 3.25 10.5251 3.25 19.5C3.25 28.4749 10.5251 35.75 19.5 35.75Z" stroke="#434343" stroke-width="1.5" stroke-linecap="round" stroke-linejoin="round"/>
</svg>
