<svg width="39" height="39" viewBox="0 0 39 39" fill="none" xmlns="http://www.w3.org/2000/svg">
<path d="M29.25 30.6475H28.015C26.715 30.6475 25.48 31.1512 24.57 32.0612L21.7912 34.8075C20.5237 36.0587 18.46 36.0587 17.1925 34.8075L14.4137 32.0612C13.5037 31.1512 12.2525 30.6475 10.9688 30.6475H9.75C7.0525 30.6475 4.875 28.4862 4.875 25.8212V8.09249C4.875 5.42749 7.0525 3.26624 9.75 3.26624H29.25C31.9475 3.26624 34.125 5.42749 34.125 8.09249V25.8212C34.125 28.47 31.9475 30.6475 29.25 30.6475Z" stroke="white" stroke-width="1.5" stroke-miterlimit="10" stroke-linecap="round" stroke-linejoin="round"/>
<path d="M19.955 24.31C19.7112 24.3913 19.305 24.3913 19.045 24.31C16.9325 23.5788 12.1875 20.5725 12.1875 15.4538C12.1875 13.195 14.0075 11.375 16.25 11.375C17.5825 11.375 18.7525 12.0087 19.5 13C20.2475 12.0087 21.4175 11.375 22.75 11.375C24.9925 11.375 26.8125 13.195 26.8125 15.4538C26.7963 20.5725 22.0675 23.5788 19.955 24.31V24.31Z" stroke="white" stroke-width="1.5" stroke-linecap="round" stroke-linejoin="round"/>
</svg>
