<svg width="39" height="39" viewBox="0 0 39 39" fill="none" xmlns="http://www.w3.org/2000/svg">
<path d="M35.75 13V21.125C35.75 27.625 32.5 30.875 26 30.875H25.1875C24.6837 30.875 24.1962 31.1187 23.8875 31.525L21.45 34.775C20.3775 36.205 18.6225 36.205 17.55 34.775L15.1125 31.525C14.8525 31.1675 14.2513 30.875 13.8125 30.875H13C6.5 30.875 3.25 29.25 3.25 21.125V13C3.25 6.5 6.5 3.25 13 3.25H19.5" stroke="#434343" stroke-width="1.5" stroke-miterlimit="10" stroke-linecap="round" stroke-linejoin="round"/>
<path d="M24.7001 7.50751C24.1638 5.89876 24.7976 3.91626 26.5526 3.36376C27.4626 3.08751 28.6001 3.31501 29.2501 4.17626C29.8676 3.28251 31.0376 3.08751 31.9476 3.36376C33.7026 3.90001 34.3363 5.89876 33.8001 7.50751C32.9713 10.0588 30.0626 11.375 29.2501 11.375C28.4376 11.375 25.5613 10.075 24.7001 7.50751Z" stroke="#434343" stroke-width="1.5" stroke-linecap="round" stroke-linejoin="round"/>
<path d="M25.9936 17.875H26.0098M19.4919 17.875H19.5082M12.9919 17.875H13.0049" stroke="#434343" stroke-width="2" stroke-linecap="round" stroke-linejoin="round"/>
</svg>
