<svg width="24" height="24" viewBox="0 0 24 24" fill="none" xmlns="http://www.w3.org/2000/svg">
<path d="M20.1902 14.06L19.0602 12.18C18.8102 11.77 18.5902 10.98 18.5902 10.5V8.62999C18.5902 4.99999 15.6402 2.04999 12.0202 2.04999C8.3902 2.05999 5.4402 4.99999 5.4402 8.62999V10.49C5.4402 10.97 5.2202 11.76 4.9802 12.17L3.8502 14.05C3.4202 14.78 3.3202 15.61 3.5902 16.33C3.8602 17.06 4.4702 17.64 5.2702 17.9C6.3502 18.26 7.4402 18.52 8.5502 18.71C8.6602 18.73 8.7702 18.74 8.8802 18.76L9.3202 18.82C9.5802 18.86 9.8402 18.89 10.1102 18.91C11.3707 19.0288 12.6397 19.0288 13.9002 18.91C14.1302 18.89 14.3602 18.87 14.5802 18.84C14.7602 18.82 14.9402 18.8 15.1202 18.77C15.2302 18.76 15.3402 18.74 15.4502 18.72C16.5702 18.54 17.6802 18.26 18.7602 17.9C19.1338 17.7751 19.4749 17.5685 19.7586 17.2951C20.0423 17.0218 20.2615 16.6887 20.4002 16.32C20.6802 15.57 20.6002 14.75 20.1902 14.06V14.06ZM12.7502 9.99999C12.7502 10.2016 12.6701 10.3949 12.5276 10.5374C12.3851 10.6799 12.1918 10.76 11.9902 10.76C11.7886 10.76 11.5953 10.6799 11.4528 10.5374C11.3103 10.3949 11.2302 10.2016 11.2302 9.99999V6.89999C11.2302 6.69842 11.3103 6.50511 11.4528 6.36259C11.5953 6.22006 11.7886 6.13999 11.9902 6.13999C12.1918 6.13999 12.3851 6.22006 12.5276 6.36259C12.6701 6.50511 12.7502 6.69842 12.7502 6.89999V9.99999ZM14.8302 20.01C14.6199 20.5921 14.2355 21.0954 13.7292 21.4515C13.2228 21.8075 12.6192 21.999 12.0002 22C11.2102 22 10.4302 21.68 9.8802 21.11C9.5602 20.81 9.3202 20.41 9.1802 20C9.3102 20.02 9.4402 20.03 9.5802 20.05C9.8102 20.08 10.0502 20.11 10.2902 20.13C10.8602 20.18 11.4402 20.21 12.0202 20.21C12.5902 20.21 13.1602 20.18 13.7202 20.13C13.9302 20.11 14.1402 20.1 14.3402 20.07L14.8302 20.01V20.01Z" fill="black"/>
</svg>
