<svg width="25" height="28" viewBox="0 0 25 28" fill="none" xmlns="http://www.w3.org/2000/svg">
<path d="M12.6951 11.7675C12.5656 11.7512 12.4346 11.7512 12.3051 11.7675C10.927 11.7211 9.62093 11.1408 8.66275 10.1493C7.70456 9.15776 7.16933 7.83259 7.17011 6.45373C7.17011 3.51248 9.54261 1.12373 12.5001 1.12373C13.8967 1.1213 15.2383 1.66779 16.2357 2.64538C17.2331 3.62297 17.8064 4.95335 17.832 6.3497C17.8575 7.74606 17.3334 9.09655 16.3725 10.11C15.4115 11.1235 14.0908 11.7187 12.6951 11.7675V11.7675ZM23.4526 22.4925C20.4663 25.2372 16.5562 26.7572 12.5001 26.75C8.27511 26.75 4.44011 25.1412 1.54761 22.4925C1.71011 20.965 2.68511 19.47 4.42386 18.3C8.87636 15.3425 16.1564 15.3425 20.5764 18.3C22.3151 19.47 23.2901 20.965 23.4526 22.4925V22.4925Z" stroke="#434343" stroke-width="1.5" stroke-linecap="round" stroke-linejoin="round"/>
</svg>
