<svg width="24" height="24" viewBox="0 0 24 24" fill="none" xmlns="http://www.w3.org/2000/svg">
<path d="M21.3 21.999C21.12 21.999 20.94 21.929 20.81 21.799L18.95 19.939C18.8202 19.807 18.7474 19.6292 18.7474 19.444C18.7474 19.2588 18.8202 19.081 18.95 18.949C19.22 18.679 19.66 18.679 19.94 18.949L21.8 20.809C22.07 21.079 22.07 21.519 21.8 21.799C21.66 21.929 21.48 21.999 21.3 21.999ZM11.5 2C6.26 2 2 6.26 2 11.5C2 16.74 6.26 21 11.5 21C16.74 21 21 16.74 21 11.5C21 6.26 16.74 2 11.5 2ZM14.68 12.06C14.12 13.84 12.17 14.81 11.5 14.81C10.81 14.81 8.9 13.88 8.32 12.06C7.94 10.87 8.37 9.32 9.73 8.89C10.35 8.69 11.01 8.81 11.5 9.18C11.98 8.81 12.65 8.69 13.28 8.89C14.63 9.33 15.06 10.88 14.68 12.06Z" fill="black"/>
</svg>
