<svg width="39" height="39" viewBox="0 0 39 39" fill="none" xmlns="http://www.w3.org/2000/svg">
<path d="M4.875 14.8037V24.18C4.875 27.625 4.875 27.625 8.125 29.8187L17.0625 34.9862C18.4112 35.7662 20.605 35.7662 21.9375 34.9862L30.875 29.8187C34.125 27.625 34.125 27.625 34.125 24.1962V14.8037C34.125 11.375 34.125 11.375 30.875 9.18121L21.9375 4.01371C20.605 3.23371 18.4112 3.23371 17.0625 4.01371L8.125 9.18121C4.875 11.375 4.875 11.375 4.875 14.8037Z" stroke="#434343" stroke-width="1.5" stroke-linecap="round" stroke-linejoin="round"/>
<path d="M19.5 24.375C20.7929 24.375 22.0329 23.8614 22.9471 22.9471C23.8614 22.0329 24.375 20.7929 24.375 19.5C24.375 18.2071 23.8614 16.9671 22.9471 16.0529C22.0329 15.1386 20.7929 14.625 19.5 14.625C18.2071 14.625 16.9671 15.1386 16.0529 16.0529C15.1386 16.9671 14.625 18.2071 14.625 19.5C14.625 20.7929 15.1386 22.0329 16.0529 22.9471C16.9671 23.8614 18.2071 24.375 19.5 24.375V24.375Z" stroke="#434343" stroke-width="1.5" stroke-linecap="round" stroke-linejoin="round"/>
</svg>
