<svg width="24" height="24" viewBox="0 0 24 24" fill="none" xmlns="http://www.w3.org/2000/svg">
<path d="M18.94 5.42104L13.77 2.43104C12.78 1.86104 11.23 1.86104 10.24 2.43104L5.02 5.44104C2.95 6.84104 2.83 7.05104 2.83 9.28104V14.711C2.83 16.941 2.95 17.161 5.06 18.581L10.23 21.571C10.73 21.861 11.37 22.001 12 22.001C12.63 22.001 13.27 21.861 13.76 21.571L18.98 18.561C21.05 17.161 21.17 16.951 21.17 14.721V9.28104C21.17 7.05104 21.05 6.84104 18.94 5.42104V5.42104ZM12 15.251C10.21 15.251 8.75 13.791 8.75 12.001C8.75 10.211 10.21 8.75104 12 8.75104C13.79 8.75104 15.25 10.211 15.25 12.001C15.25 13.791 13.79 15.251 12 15.251Z" fill="black"/>
</svg>
