<svg width="67" height="88" viewBox="0 0 67 88" fill="none" xmlns="http://www.w3.org/2000/svg">
<path d="M11.9659 87.2727V75.2727H14.3523V76.7386H14.4602C14.5663 76.5038 14.7197 76.2652 14.9205 76.0227C15.125 75.7765 15.3902 75.572 15.7159 75.4091C16.0455 75.2424 16.4545 75.1591 16.9432 75.1591C17.5795 75.1591 18.1667 75.3258 18.7045 75.6591C19.2424 75.9886 19.6723 76.4867 19.9943 77.1534C20.3163 77.8163 20.4773 78.6477 20.4773 79.6477C20.4773 80.6212 20.3201 81.4432 20.0057 82.1136C19.6951 82.7803 19.2708 83.286 18.733 83.6307C18.1989 83.9716 17.6004 84.142 16.9375 84.142C16.4678 84.142 16.0682 84.0644 15.7386 83.9091C15.4129 83.7538 15.1458 83.5587 14.9375 83.3239C14.7292 83.0852 14.5701 82.8447 14.4602 82.6023H14.3864V87.2727H11.9659ZM14.3352 79.6364C14.3352 80.1553 14.4072 80.608 14.5511 80.9943C14.6951 81.3807 14.9034 81.6818 15.1761 81.8977C15.4489 82.1098 15.7803 82.2159 16.1705 82.2159C16.5644 82.2159 16.8977 82.108 17.1705 81.892C17.4432 81.6723 17.6496 81.3693 17.7898 80.983C17.9337 80.5928 18.0057 80.1439 18.0057 79.6364C18.0057 79.1326 17.9356 78.6894 17.7955 78.3068C17.6553 77.9242 17.4489 77.625 17.1761 77.4091C16.9034 77.1932 16.5682 77.0852 16.1705 77.0852C15.7765 77.0852 15.4432 77.1894 15.1705 77.3977C14.9015 77.6061 14.6951 77.9015 14.5511 78.2841C14.4072 78.6667 14.3352 79.1174 14.3352 79.6364ZM24.5114 78.9545V84H22.0909V72.3636H24.4432V76.8125H24.5455C24.7424 76.2973 25.0606 75.8939 25.5 75.6023C25.9394 75.3068 26.4905 75.1591 27.1534 75.1591C27.7595 75.1591 28.2879 75.2917 28.7386 75.5568C29.1932 75.8182 29.5455 76.1951 29.7955 76.6875C30.0492 77.1761 30.1742 77.7614 30.1705 78.4432V84H27.75V78.875C27.7538 78.3371 27.6174 77.9186 27.3409 77.6193C27.0682 77.3201 26.6856 77.1705 26.1932 77.1705C25.8636 77.1705 25.572 77.2405 25.3182 77.3807C25.0682 77.5208 24.8712 77.7254 24.7273 77.9943C24.5871 78.2595 24.5152 78.5795 24.5114 78.9545ZM36.0185 84.1705C35.1359 84.1705 34.3726 83.983 33.7287 83.608C33.0885 83.2292 32.5942 82.7027 32.2457 82.0284C31.8973 81.3504 31.723 80.5644 31.723 79.6705C31.723 78.7689 31.8973 77.9811 32.2457 77.3068C32.5942 76.6288 33.0885 76.1023 33.7287 75.7273C34.3726 75.3485 35.1359 75.1591 36.0185 75.1591C36.901 75.1591 37.6624 75.3485 38.3026 75.7273C38.9465 76.1023 39.4427 76.6288 39.7912 77.3068C40.1397 77.9811 40.3139 78.7689 40.3139 79.6705C40.3139 80.5644 40.1397 81.3504 39.7912 82.0284C39.4427 82.7027 38.9465 83.2292 38.3026 83.608C37.6624 83.983 36.901 84.1705 36.0185 84.1705ZM36.0298 82.2955C36.4313 82.2955 36.7666 82.1818 37.0355 81.9545C37.3045 81.7235 37.5071 81.4091 37.6435 81.0114C37.7836 80.6136 37.8537 80.161 37.8537 79.6534C37.8537 79.1458 37.7836 78.6932 37.6435 78.2955C37.5071 77.8977 37.3045 77.5833 37.0355 77.3523C36.7666 77.1212 36.4313 77.0057 36.0298 77.0057C35.6245 77.0057 35.2836 77.1212 35.0071 77.3523C34.7344 77.5833 34.5279 77.8977 34.3878 78.2955C34.2514 78.6932 34.1832 79.1458 34.1832 79.6534C34.1832 80.161 34.2514 80.6136 34.3878 81.0114C34.5279 81.4091 34.7344 81.7235 35.0071 81.9545C35.2836 82.1818 35.6245 82.2955 36.0298 82.2955ZM46.5298 75.2727V77.0909H41.2741V75.2727H46.5298ZM42.4673 73.1818H44.8878V81.3182C44.8878 81.5417 44.9219 81.7159 44.9901 81.8409C45.0582 81.9621 45.1529 82.0473 45.2741 82.0966C45.3991 82.1458 45.5431 82.1705 45.706 82.1705C45.8196 82.1705 45.9332 82.161 46.0469 82.142C46.1605 82.1193 46.2476 82.1023 46.3082 82.0909L46.6889 83.892C46.5677 83.9299 46.3973 83.9735 46.1776 84.0227C45.9579 84.0758 45.6908 84.108 45.3764 84.1193C44.7931 84.142 44.2817 84.0644 43.8423 83.8864C43.4067 83.7083 43.0677 83.4318 42.8253 83.0568C42.5829 82.6818 42.4635 82.2083 42.4673 81.6364V73.1818ZM51.956 84.1705C51.0734 84.1705 50.3101 83.983 49.6662 83.608C49.026 83.2292 48.5317 82.7027 48.1832 82.0284C47.8348 81.3504 47.6605 80.5644 47.6605 79.6705C47.6605 78.7689 47.8348 77.9811 48.1832 77.3068C48.5317 76.6288 49.026 76.1023 49.6662 75.7273C50.3101 75.3485 51.0734 75.1591 51.956 75.1591C52.8385 75.1591 53.5999 75.3485 54.2401 75.7273C54.884 76.1023 55.3802 76.6288 55.7287 77.3068C56.0772 77.9811 56.2514 78.7689 56.2514 79.6705C56.2514 80.5644 56.0772 81.3504 55.7287 82.0284C55.3802 82.7027 54.884 83.2292 54.2401 83.608C53.5999 83.983 52.8385 84.1705 51.956 84.1705ZM51.9673 82.2955C52.3688 82.2955 52.7041 82.1818 52.973 81.9545C53.242 81.7235 53.4446 81.4091 53.581 81.0114C53.7211 80.6136 53.7912 80.161 53.7912 79.6534C53.7912 79.1458 53.7211 78.6932 53.581 78.2955C53.4446 77.8977 53.242 77.5833 52.973 77.3523C52.7041 77.1212 52.3688 77.0057 51.9673 77.0057C51.562 77.0057 51.2211 77.1212 50.9446 77.3523C50.6719 77.5833 50.4654 77.8977 50.3253 78.2955C50.1889 78.6932 50.1207 79.1458 50.1207 79.6534C50.1207 80.161 50.1889 80.6136 50.3253 81.0114C50.4654 81.4091 50.6719 81.7235 50.9446 81.9545C51.2211 82.1818 51.562 82.2955 51.9673 82.2955Z" fill="black"/>
<path d="M60.5233 47.3467L51.7854 26.9396C48.8262 20.0163 43.3825 19.7371 39.7254 26.3254L34.4491 35.845C31.7691 40.6746 26.772 41.0933 23.3104 36.7663L22.6962 35.9846C19.095 31.4621 14.0141 32.0204 11.4179 37.185L6.61621 46.8163C3.23829 53.5163 8.12371 61.4167 15.6054 61.4167H51.227C58.4854 61.4167 63.3708 54.0188 60.5233 47.3467ZM19.4579 22.3333C21.6791 22.3333 23.8093 21.451 25.3799 19.8804C26.9505 18.3097 27.8329 16.1795 27.8329 13.9583C27.8329 11.7372 26.9505 9.60694 25.3799 8.03632C23.8093 6.46571 21.6791 5.58334 19.4579 5.58334C17.2367 5.58334 15.1065 6.46571 13.5359 8.03632C11.9652 9.60694 11.0829 11.7372 11.0829 13.9583C11.0829 16.1795 11.9652 18.3097 13.5359 19.8804C15.1065 21.451 17.2367 22.3333 19.4579 22.3333V22.3333Z" stroke="black" stroke-width="1.5" stroke-linecap="round" stroke-linejoin="round"/>
</svg>
